<svg xmlns="http://www.w3.org/2000/svg" xmlns:xlink="http://www.w3.org/1999/xlink" width="500" zoomAndPan="magnify" viewBox="0 0 375 374.999991" height="500" preserveAspectRatio="xMidYMid meet" version="1.0"><defs><clipPath id="de9287bd4f"><path d="M 29 66 L 337.195312 66 L 337.195312 298.757812 L 29 298.757812 Z M 29 66 " clip-rule="nonzero"/></clipPath></defs><rect x="-37.5" width="450" fill="#ffffff" y="-37.499999" height="449.999989" fill-opacity="1"/><rect x="-37.5" width="450" fill="#22497d" y="-37.499999" height="449.999989" fill-opacity="1"/><g clip-path="url(#de9287bd4f)"><path fill="#ff4747" d="M 395.414062 245.644531 C 395.292969 245.523438 395.292969 245.28125 395.171875 245.164062 C 394.210938 240.351562 391.925781 235.898438 389.761719 231.570312 C 387.957031 227.839844 385.910156 224.230469 383.503906 220.863281 C 381.097656 217.613281 378.332031 214.726562 375.445312 211.839844 C 372.554688 209.070312 369.550781 206.425781 366.300781 204.257812 C 358.359375 198.964844 349.21875 195.957031 339.953125 194.152344 C 336.945312 193.550781 333.9375 193.070312 330.8125 192.589844 C 331.171875 191.027344 331.53125 189.34375 331.773438 187.777344 C 332.253906 184.769531 331.894531 181.523438 331.652344 178.515625 C 331.292969 173.460938 329.726562 168.648438 327.921875 164.078125 C 327.203125 162.03125 326.117188 160.226562 325.035156 158.304688 C 323.472656 155.65625 321.667969 153.25 319.742188 150.84375 C 315.652344 146.03125 310.601562 141.820312 305.1875 138.574219 C 302.179688 136.890625 299.050781 135.324219 295.800781 134.242188 C 292.195312 133.039062 288.222656 132.558594 284.492188 132.199219 C 277.757812 131.597656 270.660156 132.078125 264.042969 133.519531 C 262.359375 133.882812 260.671875 134.363281 258.988281 135.085938 C 258.269531 130.03125 256.703125 125.097656 255.140625 120.289062 C 252.132812 111.386719 247.441406 103.324219 241.664062 95.867188 C 238.65625 92.015625 235.289062 88.648438 231.558594 85.519531 C 228.191406 82.511719 224.582031 79.863281 220.613281 77.460938 C 216.523438 74.933594 212.070312 72.765625 207.621094 71.082031 C 202.566406 69.15625 197.273438 68.074219 191.980469 67.113281 C 189.933594 66.753906 187.769531 66.511719 185.722656 66.390625 C 181.273438 66.03125 176.820312 66.152344 172.371094 66.390625 C 166.113281 66.871094 159.980469 67.957031 154.085938 69.878906 C 150.714844 70.960938 147.46875 72.164062 144.339844 73.609375 C 141.453125 74.570312 138.566406 75.535156 135.796875 76.859375 C 130.265625 79.382812 124.972656 82.390625 120.160156 86.121094 C 115.226562 89.851562 110.894531 94.179688 106.925781 98.875 C 103.074219 103.445312 99.707031 108.378906 96.820312 113.671875 C 93.8125 118.964844 91.648438 124.617188 89.960938 130.511719 C 89.359375 132.4375 89 134.363281 88.519531 136.167969 C 88.15625 137.609375 87.917969 139.175781 87.554688 140.617188 C 87.316406 142.183594 87.195312 143.746094 87.195312 145.308594 C 87.195312 145.429688 87.195312 145.550781 87.195312 145.671875 C 86.472656 145.792969 85.75 145.792969 85.03125 145.910156 C 76.007812 146.996094 67.226562 150.363281 59.644531 155.296875 C 55.675781 157.820312 52.066406 160.589844 48.820312 164.078125 C 45.210938 167.808594 42.082031 171.777344 39.433594 176.230469 C 36.910156 180.4375 34.742188 185.011719 33.179688 189.703125 C 31.375 194.753906 30.410156 200.167969 29.808594 205.460938 C 29.207031 210.394531 29.449219 215.328125 29.929688 220.261719 C 30.410156 225.3125 32.097656 230.246094 34.140625 234.9375 C 35.945312 239.269531 38.714844 243.359375 41.359375 247.207031 C 44.246094 251.296875 47.855469 254.667969 51.585938 257.792969 C 58.5625 263.691406 67.105469 267.417969 75.886719 269.945312 C 80.578125 271.269531 85.269531 272.351562 90.082031 273.195312 C 95.136719 273.914062 100.308594 273.796875 105.359375 273.3125 C 113.0625 272.59375 120.160156 269.34375 126.292969 264.773438 C 127.136719 265.496094 127.976562 266.214844 128.820312 266.816406 C 131.585938 269.101562 134.234375 271.269531 137 273.433594 C 146.144531 280.652344 155.527344 287.992188 166.234375 292.804688 C 171.527344 295.210938 177.304688 296.773438 183.078125 297.734375 C 189.332031 298.820312 195.828125 299.058594 202.207031 298.699219 C 208.101562 298.335938 214.117188 297.132812 219.769531 295.570312 C 225.664062 293.886719 231.320312 291.359375 236.855469 288.714844 C 246.71875 284.019531 255.863281 278.125 264.523438 271.628906 C 269.09375 268.140625 273.425781 264.410156 277.636719 260.5625 C 281.367188 257.3125 285.214844 254.066406 289.066406 250.9375 C 294.839844 246.367188 300.976562 242.757812 307.59375 239.628906 C 315.171875 236.378906 322.992188 233.855469 331.171875 232.289062 C 339.351562 230.96875 347.414062 230.726562 355.59375 231.449219 C 362.8125 232.171875 369.910156 233.734375 376.765625 236.140625 C 380.976562 237.703125 385.066406 239.75 388.796875 242.277344 C 389.640625 242.878906 390.480469 243.597656 391.203125 244.320312 C 391.804688 245.28125 392.40625 246.246094 393.007812 247.207031 C 394.089844 249.492188 394.933594 251.898438 395.773438 254.304688 C 395.773438 254.546875 395.773438 254.90625 395.773438 255.148438 C 396.496094 253.222656 396.976562 251.417969 396.859375 249.492188 C 396.496094 248.050781 395.894531 246.726562 395.414062 245.644531 Z M 372.917969 228.078125 C 362.8125 223.628906 351.984375 220.980469 340.917969 220.140625 C 334.539062 219.660156 328.042969 219.777344 321.667969 220.5 C 313.125 221.464844 304.703125 223.507812 296.644531 226.394531 C 292.554688 227.839844 288.585938 229.644531 284.734375 231.6875 C 280.886719 233.734375 277.394531 236.140625 273.90625 238.667969 C 270.660156 241.074219 267.410156 243.359375 264.164062 245.882812 C 260.671875 248.652344 257.183594 251.539062 253.457031 254.066406 C 246.476562 258.878906 239.019531 263.207031 231.320312 266.816406 C 223.980469 269.945312 216.523438 272.472656 208.703125 273.914062 C 202.328125 274.878906 195.828125 275.117188 189.453125 274.636719 C 185.84375 274.277344 182.234375 273.675781 178.625 272.710938 C 174.175781 271.027344 169.722656 269.34375 165.511719 267.417969 C 163.949219 266.457031 162.386719 265.375 160.820312 264.292969 C 159.617188 263.449219 158.414062 262.605469 157.210938 261.644531 C 156.609375 261.285156 156.007812 260.800781 155.527344 260.441406 C 153.84375 258.996094 152.039062 257.675781 150.355469 256.230469 C 149.511719 255.628906 148.910156 254.789062 148.191406 254.1875 C 147.707031 253.703125 147.226562 253.34375 146.867188 252.863281 C 145.542969 251.539062 144.339844 250.335938 143.015625 249.011719 C 142.414062 248.410156 141.933594 247.6875 141.332031 247.085938 C 141.332031 247.085938 141.210938 246.96875 141.210938 246.96875 C 143.136719 243.480469 144.820312 239.75 146.023438 236.019531 C 147.589844 231.449219 148.429688 226.515625 149.03125 221.824219 C 149.511719 217.011719 148.910156 211.957031 147.589844 207.265625 C 146.144531 202.695312 144.21875 198.484375 141.089844 194.753906 C 139.648438 192.949219 137.722656 191.386719 135.917969 189.824219 C 133.875 188.019531 131.46875 186.816406 129.0625 185.492188 C 124.972656 183.445312 120.519531 182.484375 115.949219 181.640625 C 111.257812 180.800781 106.445312 180.679688 101.632812 181.402344 C 97.179688 182.125 93.210938 183.929688 89.601562 186.335938 C 87.917969 187.417969 86.59375 189.101562 85.148438 190.664062 C 83.585938 192.46875 82.382812 194.515625 81.421875 196.679688 C 79.617188 200.410156 78.894531 204.378906 79.617188 208.46875 C 80.21875 212.441406 82.863281 215.6875 86.234375 217.734375 C 89.601562 219.777344 93.570312 219.777344 97.300781 218.816406 C 100.066406 218.09375 103.4375 216.167969 104.039062 213.160156 C 103.917969 213.402344 103.796875 213.644531 103.675781 213.761719 C 103.316406 214.125 102.835938 214.484375 102.355469 214.847656 C 101.871094 215.085938 101.390625 215.328125 100.789062 215.566406 C 99.585938 215.929688 98.382812 216.167969 97.058594 216.289062 C 95.976562 216.289062 95.015625 216.167969 93.933594 216.050781 C 92.96875 215.808594 92.007812 215.449219 91.046875 214.964844 C 90.445312 214.605469 89.84375 214.246094 89.242188 213.761719 C 88.757812 213.28125 88.277344 212.679688 87.796875 212.078125 C 87.4375 211.597656 87.195312 210.996094 86.953125 210.515625 C 86.835938 209.914062 86.714844 209.3125 86.59375 208.589844 C 86.59375 207.75 86.714844 206.90625 86.835938 205.945312 C 87.074219 205.222656 87.316406 204.378906 87.675781 203.65625 C 88.519531 202.214844 89.359375 201.011719 90.445312 199.6875 C 91.527344 198.484375 92.730469 197.523438 94.054688 196.558594 C 95.015625 195.957031 95.976562 195.476562 96.941406 195.117188 C 98.625 194.636719 100.429688 194.273438 102.234375 194.152344 C 104.398438 194.152344 106.445312 194.394531 108.488281 194.753906 C 112.339844 195.71875 116.070312 196.921875 119.675781 198.605469 C 121.242188 199.566406 122.683594 200.648438 124.128906 201.734375 C 125.453125 202.9375 126.535156 204.257812 127.617188 205.703125 C 128.21875 206.90625 128.820312 208.109375 129.300781 209.3125 C 129.902344 211.355469 130.265625 213.402344 130.503906 215.449219 C 130.503906 217.855469 130.265625 220.261719 129.78125 222.664062 C 128.699219 227.117188 127.257812 231.449219 125.210938 235.660156 C 123.40625 239.027344 121.242188 242.15625 118.835938 245.042969 C 116.910156 246.96875 114.867188 248.773438 112.578125 250.335938 C 111.015625 251.296875 109.332031 252.140625 107.648438 252.863281 C 105.363281 253.464844 103.195312 253.824219 100.910156 254.066406 C 97.300781 254.1875 93.691406 253.824219 90.082031 253.222656 C 84.1875 251.898438 78.292969 249.855469 72.878906 247.328125 C 70.113281 245.765625 67.464844 243.960938 65.058594 241.792969 C 62.773438 239.628906 60.730469 237.222656 58.804688 234.574219 C 56.757812 231.328125 55.074219 227.839844 53.75 224.351562 C 52.910156 221.34375 52.308594 218.457031 52.066406 215.328125 C 51.945312 210.636719 52.308594 205.945312 53.148438 201.371094 C 54.351562 196.558594 56.035156 191.867188 58.203125 187.417969 C 60.488281 183.328125 63.015625 179.476562 66.023438 175.988281 C 69.269531 172.621094 72.878906 169.492188 76.730469 166.84375 C 80.941406 164.199219 85.390625 162.152344 89.960938 160.46875 C 95.253906 158.785156 100.667969 158.0625 106.203125 157.703125 C 107.285156 157.703125 108.367188 157.582031 109.453125 157.582031 C 109.691406 157.941406 109.933594 158.304688 110.171875 158.785156 C 110.171875 158.421875 110.054688 158.0625 110.054688 157.582031 C 114.265625 157.582031 118.472656 157.941406 122.683594 158.785156 C 124.609375 159.265625 126.535156 159.746094 128.460938 160.46875 C 130.382812 161.191406 132.1875 162.152344 134.113281 162.996094 C 131.46875 159.988281 128.699219 157.339844 125.453125 155.054688 C 121.722656 152.527344 117.390625 150.605469 113.0625 149.039062 C 111.738281 148.558594 110.414062 148.199219 108.96875 147.835938 C 108.96875 145.550781 109.332031 143.265625 109.8125 140.980469 C 110.773438 136.769531 112.339844 132.679688 114.265625 128.707031 C 116.671875 124.257812 119.675781 120.046875 123.046875 116.195312 C 128.460938 110.300781 134.476562 104.527344 141.089844 99.957031 C 145.785156 97.070312 150.714844 94.542969 155.890625 92.617188 C 161.902344 90.8125 168.160156 89.609375 174.414062 89.128906 C 181.273438 88.886719 188.128906 89.371094 194.867188 90.691406 C 199.800781 91.894531 204.613281 93.460938 209.183594 95.625 C 213.636719 98.03125 217.726562 100.917969 221.574219 104.167969 C 225.304688 107.777344 228.671875 111.625 231.679688 115.957031 C 234.328125 120.289062 236.492188 124.738281 238.296875 129.429688 C 239.859375 134.601562 240.945312 139.898438 241.304688 145.308594 C 241.425781 149.640625 241.183594 153.972656 240.460938 158.183594 C 239.378906 162.632812 237.9375 166.84375 235.890625 170.933594 C 233.726562 174.785156 231.199219 178.394531 228.3125 181.761719 C 225.0625 185.132812 221.453125 188.140625 217.605469 190.785156 C 214.597656 192.710938 211.46875 194.273438 208.101562 195.597656 C 204.371094 196.679688 200.523438 197.402344 196.550781 197.644531 C 194.625 197.644531 192.824219 197.644531 190.898438 197.402344 C 189.695312 197.042969 188.492188 196.558594 187.410156 196.078125 C 185.84375 195.117188 184.402344 194.152344 183.078125 193.070312 C 181.875 191.867188 180.792969 190.664062 179.828125 189.339844 C 178.144531 186.574219 176.820312 183.808594 175.617188 180.800781 C 174.054688 175.746094 173.09375 170.453125 172.730469 165.28125 C 172.730469 163.234375 172.851562 161.3125 173.210938 159.265625 C 173.574219 157.941406 173.933594 156.738281 174.535156 155.417969 C 175.015625 154.695312 175.5 153.972656 176.101562 153.25 C 177.183594 152.167969 178.386719 151.207031 179.589844 150.242188 C 180.792969 149.519531 182.117188 148.917969 183.4375 148.4375 C 185.003906 147.957031 186.6875 147.714844 188.371094 147.476562 C 190.054688 147.476562 191.738281 147.597656 193.425781 147.835938 C 194.625 148.199219 195.828125 148.558594 197.03125 149.160156 C 198.234375 149.882812 199.4375 150.722656 200.640625 151.6875 C 201.242188 152.410156 201.84375 153.128906 202.445312 153.851562 C 203.046875 154.933594 203.648438 155.898438 204.011719 157.101562 C 204.371094 158.304688 204.613281 159.386719 204.734375 160.589844 C 204.734375 161.550781 204.613281 162.515625 204.492188 163.476562 C 204.25 164.199219 204.011719 165.039062 203.769531 165.761719 C 203.53125 166.242188 203.167969 166.605469 202.808594 167.085938 C 202.085938 167.808594 201.242188 168.527344 200.402344 169.128906 C 199.4375 169.613281 198.476562 170.09375 197.515625 170.453125 C 196.191406 170.816406 194.867188 171.054688 193.542969 171.175781 C 192.339844 171.175781 191.257812 171.175781 190.054688 170.933594 C 188.972656 170.695312 188.011719 170.332031 187.046875 169.972656 C 186.6875 169.730469 186.324219 169.492188 185.964844 169.128906 C 185.605469 168.890625 185.363281 168.527344 185.121094 168.167969 C 183.800781 166.125 182.835938 163.835938 181.996094 161.671875 C 182.117188 163.835938 182.234375 166.125 182.71875 168.289062 C 183.4375 171.777344 186.085938 173.703125 189.09375 175.265625 C 192.460938 177.070312 196.550781 177.191406 200.28125 176.710938 C 204.25 176.230469 208.222656 174.0625 210.867188 171.054688 C 217.003906 164.199219 216.28125 153.371094 212.191406 145.671875 C 210.027344 141.703125 206.535156 138.453125 202.808594 135.925781 C 198.476562 133.160156 193.304688 131.835938 188.25 131.355469 C 183.4375 130.875 178.625 131.835938 174.175781 133.402344 C 169.722656 134.964844 165.632812 137.609375 162.265625 140.859375 C 155.046875 147.835938 152.160156 158.183594 152.640625 167.925781 C 152.882812 172.738281 153.363281 177.550781 154.324219 182.363281 C 155.289062 187.296875 157.09375 191.988281 159.378906 196.441406 C 161.421875 200.410156 164.070312 204.378906 167.4375 207.386719 C 169.363281 209.191406 171.410156 210.875 173.574219 212.320312 C 176.101562 214.003906 178.867188 215.328125 181.632812 216.410156 C 186.808594 218.457031 192.339844 218.457031 197.753906 218.09375 C 202.328125 217.734375 206.777344 217.011719 211.230469 215.6875 C 215.679688 214.246094 220.011719 212.558594 224.101562 210.15625 C 228.433594 207.628906 232.644531 204.5 236.492188 201.25 C 249.484375 190.0625 258.027344 173.703125 260.074219 156.738281 C 261.394531 155.898438 262.71875 155.175781 264.164062 154.574219 C 266.085938 153.972656 268.011719 153.613281 269.9375 153.371094 C 274.027344 153.011719 277.996094 153.25 281.96875 153.851562 C 286.058594 154.574219 290.027344 155.65625 293.878906 157.101562 C 295.5625 158.304688 297.246094 159.507812 298.929688 160.828125 C 301.457031 163.234375 303.742188 165.882812 305.789062 168.769531 C 307.109375 170.933594 308.195312 173.222656 309.035156 175.628906 C 309.636719 177.792969 310 179.835938 310.359375 182.125 C 310.359375 183.808594 310.359375 185.613281 310.117188 187.296875 C 309.757812 188.738281 309.15625 190.183594 308.554688 191.507812 C 307.832031 192.710938 306.992188 193.914062 306.148438 194.996094 C 304.707031 196.441406 303.140625 197.761719 301.457031 198.964844 C 299.050781 200.410156 296.644531 201.613281 294 202.574219 C 290.390625 203.65625 286.898438 204.257812 283.171875 204.621094 C 281.847656 204.621094 280.523438 204.5 279.199219 204.378906 C 278.359375 204.140625 277.636719 203.898438 276.792969 203.539062 C 276.191406 203.175781 275.710938 202.816406 275.109375 202.335938 C 274.386719 201.613281 273.785156 200.890625 273.183594 200.167969 C 272.464844 198.964844 271.863281 197.761719 271.382812 196.441406 C 271.019531 195.238281 270.78125 193.914062 270.539062 192.589844 C 270.539062 191.265625 270.660156 190.0625 270.78125 188.738281 C 271.019531 187.777344 271.382812 186.695312 271.863281 185.734375 C 272.101562 185.25 272.464844 184.890625 272.824219 184.410156 C 273.425781 183.808594 274.027344 183.328125 274.628906 182.84375 C 275.472656 182.363281 276.191406 182.003906 277.035156 181.640625 C 277.996094 181.402344 279.082031 181.160156 280.042969 181.039062 C 281.125 181.039062 282.207031 181.160156 283.289062 181.28125 C 284.253906 181.523438 285.09375 181.882812 285.9375 182.242188 C 286.78125 182.726562 287.621094 183.328125 288.464844 183.929688 C 289.1875 184.53125 289.789062 185.25 290.390625 185.972656 C 290.507812 186.214844 290.628906 186.453125 290.628906 186.695312 C 290.628906 186.9375 290.75 187.175781 290.75 187.417969 C 290.75 187.539062 290.75 187.777344 290.628906 187.898438 C 290.507812 188.019531 290.507812 188.257812 290.390625 188.378906 C 290.269531 188.5 290.148438 188.621094 290.148438 188.738281 C 290.027344 188.859375 289.90625 188.980469 289.789062 188.980469 C 289.667969 188.980469 289.546875 189.101562 289.425781 189.101562 C 289.1875 189.101562 289.066406 189.222656 288.824219 189.222656 C 288.34375 189.222656 287.742188 189.222656 287.261719 189.101562 C 287.140625 188.980469 286.898438 188.980469 286.78125 188.859375 C 286.660156 188.738281 286.539062 188.621094 286.296875 188.5 C 287.019531 189.941406 288.945312 191.027344 290.507812 190.425781 C 293.277344 189.460938 294 186.335938 292.914062 183.808594 C 291.472656 180.679688 289.425781 178.152344 286.660156 176.230469 C 283.050781 173.582031 278.359375 173.222656 274.148438 173.582031 C 270.296875 173.941406 266.207031 176.109375 263.5625 178.875 C 261.996094 180.558594 260.792969 182.363281 259.832031 184.410156 C 258.75 186.695312 258.148438 189.101562 257.667969 191.507812 C 257.183594 193.671875 257.304688 195.957031 257.546875 198.125 C 257.785156 200.046875 258.148438 201.972656 258.75 203.777344 C 259.472656 205.945312 260.3125 207.988281 261.515625 209.914062 C 262.238281 210.996094 262.960938 212.078125 263.800781 213.160156 C 264.882812 214.484375 266.207031 215.449219 267.410156 216.53125 C 269.09375 218.09375 271.382812 219.058594 273.546875 219.898438 C 275.710938 220.863281 278.238281 221.222656 280.644531 221.703125 C 282.691406 222.0625 284.855469 222.0625 286.898438 222.0625 C 289.90625 222.0625 293.035156 221.824219 296.042969 221.464844 C 305.546875 220.140625 315.050781 215.808594 321.789062 208.953125 C 321.910156 208.832031 322.027344 208.710938 322.148438 208.46875 C 322.628906 208.589844 322.992188 208.710938 323.472656 208.832031 C 324.675781 209.191406 325.878906 209.433594 326.960938 209.671875 C 329.609375 210.273438 332.132812 210.753906 334.78125 211.238281 C 341.519531 212.558594 348.375 213.644531 354.992188 215.449219 C 359.925781 217.132812 364.617188 219.417969 369.066406 222.183594 C 373.039062 224.710938 376.765625 227.597656 380.136719 230.847656 C 380.375 231.085938 380.738281 231.449219 380.976562 231.6875 C 378.210938 230.605469 375.5625 229.28125 372.917969 228.078125 Z M 372.917969 228.078125 " fill-opacity="1" fill-rule="nonzero"/></g></svg>